# xmcd
#
# Track frame offsets:
#	150
#	15215
#	28748
#	42383
#	55171
#	67789
#	80823
#	96699
#	113433
#	124526
#	137436
#	153641
#	167109
#	181249
#	197466
#	212735
#	228071
#	244347
#	258334
#	268936
#	286997
#	300015
#	314281
#	327110
#	341644
#
# Disc length: 4702 seconds
#
# Revision: 0
# Processed by: cddbd v1.5.1PL0 Copyright (c) Steve Scherf et al.
# Submitted via: audiograbber 1.82.00
#
DISCID=52125c19
DTITLE=Various Artist - von MC 105
DYEAR=1900
DGENRE=
TTITLE0=If You Came Back From Heaven
TTITLE1=My Mamas Green Eyes, My Daddys Wild Hair
TTITLE2=Summertime Blues
TTITLE3=Turn Me Loose And Let Me Swing
TTITLE4=Papa Loved Mama
TTITLE5=Golden Ring
TTITLE6=American Honkey-Tonk Bar Association
TTITLE7=The Thunder Rolls
TTITLE8=The Party's Over
TTITLE9=What The Cowgirls Do
TTITLE10=Half Way Down
TTITLE11=Let's Go To Vegas
TTITLE12=Girls With Guitars
TTITLE13=Long Time Go
TTITLE14=Wild Angels
TTITLE15=This Thing Called...
TTITLE16=Heartbreak Express
TTITLE17=You'd Got The Wrong Man
TTITLE18=Goose
TTITLE19=Any Man
TTITLE20=Too Hard To Handle
TTITLE21=Everybody's Equal In The Eyes Of Love
TTITLE22=You've Gotn't To Stand Fpr Something
TTITLE23=Don't Threaten Me With The Good Times
TTITLE24=Shoes And Dress That Alice Wore
EXTD=
EXTT0=
EXTT1=
EXTT2=
EXTT3=
EXTT4=
EXTT5=
EXTT6=
EXTT7=
EXTT8=
EXTT9=
EXTT10=
EXTT11=
EXTT12=
EXTT13=
EXTT14=
EXTT15=
EXTT16=
EXTT17=
EXTT18=
EXTT19=
EXTT20=
EXTT21=
EXTT22=
EXTT23=
EXTT24=
PLAYORDER=
